<svg width="450" height="126" viewBox="0 0 450 126" fill="none" xmlns="http://www.w3.org/2000/svg">
<path d="M325.72 51.4318C326.587 51.4318 327.345 51.161 327.887 50.6193C328.482 50.0776 328.807 49.3734 328.807 48.5067C328.807 47.64 328.482 46.9358 327.887 46.3941C327.291 45.8524 326.587 45.5816 325.72 45.5816C324.853 45.5816 324.095 45.8524 323.499 46.3941C322.903 46.9358 322.578 47.64 322.578 48.5067C322.578 49.3734 322.903 50.0776 323.499 50.6193C324.095 51.161 324.853 51.4318 325.72 51.4318Z" fill="#1A1D24"/>
<path d="M158.933 63.6741C158.933 61.9949 158.608 60.5323 157.904 59.3406C157.254 58.0947 156.333 57.1738 155.141 56.4696C153.95 55.7654 152.541 55.4404 150.916 55.4404C149.183 55.4404 147.558 55.8738 146.041 56.6863C144.524 57.4989 143.278 58.6906 142.358 60.3156C141.437 61.8866 140.949 63.7283 140.949 65.9492C140.949 68.1702 141.383 69.9036 142.195 71.4745C143.008 72.9912 144.145 74.1829 145.608 74.9955C147.07 75.808 148.749 76.2413 150.645 76.2413C152.541 76.2413 154.221 75.808 155.575 74.9955C156.983 74.1288 158.067 72.9912 158.879 71.4745L157.687 70.3911C156.983 71.1495 156.225 71.7995 155.412 72.287C154.6 72.7745 153.571 72.9912 152.379 72.9912C150.645 72.9912 149.237 72.3954 148.045 71.2036C146.908 70.0119 146.312 68.2785 146.204 65.8951H158.771C158.825 65.2992 158.933 64.5408 158.933 63.6741ZM153.787 63.4033C153.462 63.8366 152.812 63.9991 151.837 63.9991H146.204C146.312 62.3741 146.583 61.074 147.016 60.099C147.504 59.1239 148.045 58.4739 148.641 58.0405C149.291 57.6072 149.941 57.3905 150.591 57.3905C151.62 57.3905 152.487 57.7697 153.191 58.5822C153.896 59.3948 154.275 60.424 154.275 61.6699C154.221 62.3741 154.058 62.9699 153.787 63.4033Z" fill="#1A1D24"/>
<path d="M188.889 57.1197C187.48 55.9822 185.53 55.3863 183.039 55.3863C180.547 55.3863 178.597 55.9822 177.188 57.2281C175.78 58.4198 175.076 60.0449 175.076 62.0491C175.076 64.7034 176.159 66.5993 178.326 67.6827C177.297 68.6036 176.538 69.4703 176.051 70.2828C175.563 71.0412 175.347 71.8537 175.347 72.6121C175.347 73.3704 175.563 74.0205 175.942 74.5622C176.376 75.1039 176.972 75.5372 177.838 75.8081C176.538 76.4581 175.563 77.1081 175.022 77.8123C174.426 78.5707 174.155 79.3832 174.155 80.2499C174.155 81.1166 174.426 81.9833 174.967 82.6875C175.563 83.4459 176.484 83.9876 177.73 84.4751C179.03 84.9085 180.709 85.1251 182.822 85.1251C185.259 85.1251 187.264 84.8001 188.889 84.0959C190.514 83.3917 191.76 82.525 192.572 81.3875C193.439 80.2499 193.818 79.0582 193.818 77.7581C193.818 76.0247 193.222 74.6705 192.085 73.6413C190.947 72.6121 189.051 72.1246 186.343 72.1246H181.197C180.276 72.1246 179.68 71.9621 179.301 71.6912C178.976 71.3662 178.813 70.987 178.813 70.4453C178.813 69.6328 179.084 68.8744 179.572 68.1702C180.601 68.4952 181.738 68.6036 182.984 68.6036C185.476 68.6036 187.48 68.0077 188.835 66.816C190.243 65.5701 190.947 63.945 190.947 61.9949C190.947 60.6407 190.676 59.5032 190.081 58.5281H194.035V55.6572L193.439 55.2238L188.889 57.1197ZM178.922 76.3497C179.734 76.5123 180.601 76.6206 181.63 76.6206H186.18C187.48 76.6206 188.401 76.8914 188.943 77.4331C189.485 77.9748 189.755 78.6248 189.755 79.3832C189.755 80.4124 189.214 81.2791 188.076 81.9833C186.993 82.6875 185.368 83.0667 183.201 83.0667C181.468 83.0667 180.168 82.7959 179.247 82.2C178.326 81.6041 177.838 80.6833 177.838 79.4374C177.784 78.4082 178.163 77.379 178.922 76.3497ZM185.584 65.5701C184.989 66.491 184.122 66.9243 182.984 66.9243C181.847 66.9243 181.034 66.491 180.493 65.6243C179.897 64.7576 179.626 63.5658 179.626 62.1033C179.626 60.6407 179.951 59.449 180.547 58.5823C181.197 57.6614 182.063 57.2281 183.147 57.2281C184.23 57.2281 185.097 57.6614 185.639 58.5281C186.234 59.3948 186.56 60.5324 186.56 61.9949C186.505 63.4575 186.235 64.7034 185.584 65.5701Z" fill="#1A1D24"/>
<path d="M215.973 70.1745V62.7534C215.973 60.2074 215.486 58.3657 214.511 57.1739C213.536 55.9822 212.127 55.3864 210.394 55.3864C207.848 55.3864 205.465 56.5781 203.406 59.0157V51.7029L203.569 45.9068L202.973 45.5276L195.66 47.3693V48.9944L198.639 49.4278V70.1204C198.639 71.3121 198.639 72.3955 198.585 73.4247L195.877 73.9664V75.6456H206.006V73.9664L203.569 73.4788C203.514 72.4496 203.514 71.3121 203.514 70.1745V61.2366C205.139 59.6657 206.765 58.9074 208.281 58.9074C209.311 58.9074 210.069 59.2324 210.448 59.8282C210.881 60.4241 211.098 61.5616 211.098 63.1325V70.1745C211.098 71.3121 211.098 72.3955 211.044 73.4247L208.444 73.9664V75.6456H218.519V73.9664L216.027 73.4788C215.973 72.4496 215.973 71.3662 215.973 70.1745Z" fill="#1A1D24"/>
<path d="M142.358 48.4527H133.311V50.3486L136.67 50.8361L131.686 68.7661L126.215 50.7819L130.061 50.3486V48.4527H118.361V50.3486L121.936 50.7819L116.302 68.5494L111.644 50.7819L115.056 50.3486V48.4527H103.139V50.3486L106.118 50.6736L113.485 75.7539H116.302L122.477 55.7655L128.978 75.7539H131.795L138.891 50.8361L142.195 50.2944V48.4527H142.358Z" fill="#1A1D24"/>
<path d="M167.004 51.5945C167.871 51.5945 168.63 51.3236 169.171 50.7819C169.767 50.2403 170.092 49.5361 170.092 48.6694C170.092 47.8026 169.767 47.0984 169.171 46.5568C168.575 46.0151 167.871 45.7442 167.004 45.7442C166.138 45.7442 165.379 46.0151 164.784 46.5568C164.188 47.0984 163.863 47.8026 163.863 48.6694C163.863 49.5361 164.188 50.2403 164.784 50.7819C165.379 51.3236 166.138 51.5945 167.004 51.5945Z" fill="#1A1D24"/>
<path d="M169.442 70.1201V61.5614L169.55 55.7653L168.9 55.332L161.533 57.9321V59.503L164.459 59.8822C164.513 60.6947 164.567 61.5073 164.567 62.2656C164.621 63.024 164.621 63.9449 164.621 65.0282V70.066C164.621 71.2577 164.621 72.3411 164.567 73.3703L161.858 73.912V75.5912H172.042V73.912L169.55 73.4245C169.496 72.3952 169.442 71.3119 169.442 70.1201Z" fill="#1A1D24"/>
<path d="M350.692 73.4788C349.879 73.4788 349.5 72.883 349.5 71.6371V62.6992C349.5 60.0449 348.958 58.0948 347.875 57.0114C346.792 55.8739 345.058 55.278 342.675 55.278C340.291 55.278 338.179 55.7656 336.662 56.7406C335.145 57.7156 334.278 59.0157 334.062 60.6949C334.278 61.9408 335.037 62.5367 336.337 62.5367C337.041 62.5367 337.583 62.32 338.07 61.8325C338.558 61.345 338.829 60.6408 338.937 59.6657L339.425 57.3906C339.75 57.3365 340.02 57.2823 340.291 57.2823C340.616 57.2281 340.887 57.2281 341.104 57.2281C342.458 57.2281 343.379 57.5531 343.866 58.2573C344.408 58.9074 344.679 60.2074 344.679 62.1033V63.2409C343.975 63.4576 343.271 63.6201 342.566 63.8367C341.862 64.0534 341.266 64.2159 340.725 64.4326C338.775 65.0826 337.258 65.6785 336.174 66.3827C335.145 67.0327 334.387 67.7369 334.008 68.4953C333.574 69.2537 333.412 70.0662 333.412 70.9329C333.412 72.6121 333.953 73.9122 334.983 74.7789C336.066 75.6456 337.366 76.079 338.883 76.079C340.183 76.079 341.266 75.8081 342.079 75.3206C342.891 74.7789 343.812 73.9664 344.841 72.9371C345.112 73.9122 345.546 74.6706 346.25 75.2122C346.954 75.7539 347.821 76.0248 348.904 76.0248C349.879 76.0248 350.692 75.8081 351.342 75.4289C352.046 74.9956 352.588 74.3455 353.129 73.4247L352.208 72.6121C351.667 73.1538 351.179 73.4788 350.692 73.4788ZM344.625 71.3662C343.65 72.0704 342.891 72.5038 342.458 72.7205C341.971 72.9371 341.537 73.0455 341.05 73.0455C340.237 73.0455 339.533 72.8288 338.937 72.3413C338.395 71.8538 338.125 71.0412 338.125 70.012C338.125 69.1995 338.395 68.4411 338.883 67.7369C339.425 67.0327 340.345 66.3827 341.7 65.841C342.079 65.6785 342.458 65.5702 343 65.4076C343.541 65.2451 344.083 65.0826 344.625 64.866V71.3662Z" fill="#1A1D24"/>
<path d="M364.451 63.5659L362.826 63.0784C361.417 62.5909 360.496 62.1575 359.955 61.7242C359.467 61.2366 359.196 60.6408 359.196 59.9366C359.196 59.124 359.521 58.5282 360.117 58.0407C360.713 57.5531 361.58 57.3365 362.663 57.3365C363.584 57.3365 364.451 57.499 365.209 57.824L365.967 61.2908H368.676L368.893 56.9573C367.918 56.4156 366.942 55.9822 365.967 55.7114C364.992 55.3864 363.963 55.278 362.771 55.278C361.092 55.278 359.684 55.5489 358.492 56.1447C357.355 56.6864 356.488 57.4448 355.892 58.4198C355.296 59.3407 354.971 60.3699 354.971 61.5616C354.971 63.0242 355.404 64.2159 356.271 65.191C357.192 66.166 358.384 66.8702 359.901 67.3577L361.959 68.0619C363.259 68.4953 364.18 68.9828 364.722 69.4703C365.263 69.9578 365.534 70.5537 365.534 71.3121C365.534 72.1788 365.209 72.883 364.505 73.3705C363.801 73.858 362.771 74.1289 361.363 74.1289C360.226 74.1289 359.142 73.9122 358.167 73.533L357.409 69.7412H354.646L354.7 74.508C355.729 75.1039 356.759 75.4831 357.842 75.7539C358.925 76.079 360.063 76.1873 361.309 76.1873C364.072 76.1873 366.184 75.5914 367.647 74.3997C369.163 73.208 369.922 71.6913 369.922 69.8495C369.922 68.4411 369.488 67.1952 368.676 66.2202C367.863 65.0826 366.455 64.2159 364.451 63.5659Z" fill="#1A1D24"/>
<path d="M390.831 63.5117C390.831 61.8325 390.506 60.3699 389.802 59.1782C389.152 57.9323 388.231 57.0114 387.039 56.3072C385.847 55.603 384.439 55.278 382.814 55.278C381.081 55.278 379.455 55.7114 377.939 56.5239C376.422 57.3365 375.176 58.5282 374.255 60.1532C373.334 61.7241 372.847 63.5659 372.847 65.7868C372.847 67.9536 373.28 69.7412 374.093 71.3121C374.905 72.8288 376.043 74.0205 377.505 74.8331C378.968 75.6456 380.647 76.079 382.543 76.079C384.439 76.079 386.118 75.6456 387.473 74.8331C388.881 73.9664 389.964 72.8288 390.777 71.3121L389.585 70.2287C388.881 70.9871 388.123 71.6371 387.31 72.1246C386.497 72.6121 385.468 72.8288 384.277 72.8288C382.543 72.8288 381.135 72.233 379.943 71.0412C378.805 69.8495 378.21 68.1161 378.101 65.7327H390.668C390.777 65.1368 390.831 64.3784 390.831 63.5117ZM385.685 63.1867C385.36 63.6201 384.71 63.7826 383.735 63.7826H378.101C378.21 62.1575 378.48 60.8574 378.914 59.8824C379.401 58.9074 379.943 58.2573 380.539 57.824C381.189 57.3906 381.839 57.1739 382.489 57.1739C383.518 57.1739 384.385 57.5531 385.089 58.3657C385.793 59.1782 386.172 60.2074 386.172 61.4533C386.172 62.2117 386.01 62.8075 385.685 63.1867Z" fill="#1A1D24"/>
<path d="M229.949 73.533C229.299 73.533 228.757 73.3163 228.324 72.8288C227.945 72.3412 227.728 71.637 227.728 70.6078V58.5281H232.712V55.9822H227.782L227.945 50.3486H224.64L223.069 55.9822L219.765 56.4155V58.5281H222.799V67.2493C222.799 68.0619 222.799 68.7119 222.744 69.3078V71.0953C222.744 72.8829 223.232 74.2371 224.153 75.0497C225.074 75.8622 226.374 76.2956 227.999 76.2956C229.299 76.2956 230.382 76.0789 231.303 75.5914C232.224 75.1039 232.928 74.4538 233.416 73.5871L232.441 72.5579C231.574 73.1538 230.707 73.4788 229.949 73.533Z" fill="#1A1D24"/>
<path d="M408.057 66.0576C407.19 65.0284 405.782 64.2159 403.777 63.5117L402.152 63.0242C400.744 62.5366 399.823 62.1033 399.281 61.6699C398.794 61.1824 398.523 60.5865 398.523 59.8823C398.523 59.0698 398.848 58.474 399.444 57.9864C400.04 57.4989 400.906 57.2822 401.99 57.2822C402.911 57.2822 403.777 57.4447 404.536 57.7698L405.294 61.2366H408.003L408.219 56.903C407.244 56.3614 406.269 55.928 405.294 55.6572C404.319 55.3321 403.29 55.2238 402.098 55.2238C400.419 55.2238 399.011 55.4947 397.819 56.0905C396.681 56.6322 395.815 57.3906 395.219 58.3656C394.623 59.2865 394.298 60.3157 394.298 61.5074C394.298 62.97 394.731 64.1617 395.598 65.1367C396.519 66.1118 397.71 66.816 399.227 67.3035L401.286 68.0077C402.586 68.4411 403.507 68.9286 404.048 69.4161C404.59 69.9036 404.861 70.4995 404.861 71.2579C404.861 72.1246 404.536 72.8288 403.832 73.3163C403.127 73.8038 402.098 74.0746 400.69 74.0746C399.552 74.0746 398.469 73.858 397.494 73.4788L396.735 69.687H393.973L394.027 74.4538C395.056 75.0497 396.085 75.4289 397.169 75.6997C398.252 76.0247 399.39 76.1331 400.636 76.1331C403.398 76.1331 405.511 75.5372 406.973 74.3455C408.49 73.1538 409.248 71.637 409.248 69.7953C409.357 68.3327 408.923 67.0868 408.057 66.0576Z" fill="#1A1D24"/>
<path d="M244.9 63.7284L243.275 63.2408C241.866 62.7533 240.945 62.32 240.404 61.8866C239.916 61.3991 239.645 60.8032 239.645 60.099C239.645 59.2865 239.97 58.6906 240.566 58.2031C241.162 57.7156 242.029 57.4989 243.112 57.4989C244.033 57.4989 244.9 57.6614 245.658 57.9864L246.416 61.4533H249.125L249.341 57.1739C248.366 56.6322 247.391 56.1989 246.416 55.928C245.441 55.603 244.412 55.4947 243.22 55.4947C241.541 55.4947 240.133 55.7655 238.941 56.3614C237.803 56.903 236.937 57.6614 236.341 58.6365C235.745 59.5573 235.42 60.5865 235.42 61.7783C235.42 63.2408 235.853 64.4326 236.72 65.4076C237.641 66.3826 238.833 67.0868 240.349 67.5744L242.408 68.2786C243.708 68.7119 244.629 69.1994 245.17 69.687C245.712 70.1745 245.983 70.7703 245.983 71.5287C245.983 72.3954 245.658 73.0996 244.954 73.5871C244.25 74.0746 243.22 74.3455 241.812 74.3455C240.674 74.3455 239.591 74.1288 238.616 73.7496L237.858 69.9578H235.095L235.149 74.7247C236.178 75.3205 237.208 75.6997 238.291 75.9706C239.374 76.2956 240.512 76.4039 241.758 76.4039C244.52 76.4039 246.633 75.8081 248.096 74.6163C249.612 73.4246 250.371 71.9079 250.371 70.0661C250.371 68.6577 249.937 67.4119 249.125 66.4368C248.312 65.2451 246.904 64.3784 244.9 63.7284Z" fill="#1A1D24"/>
<path d="M328.157 69.9577V61.399L328.266 55.6029L327.616 55.1696L320.249 57.7697V59.3406L323.174 59.7198C323.228 60.5323 323.228 61.3449 323.228 62.1032C323.282 62.8616 323.282 63.7825 323.282 64.8659V69.9036C323.282 71.0953 323.282 72.1787 323.228 73.2079L320.52 73.7496V75.4288H330.703V73.7496L328.212 73.2621C328.157 72.2328 328.157 71.1495 328.157 69.9577Z" fill="#1A1D24"/>
<path d="M277.347 59.2322L280.543 59.7739C280.218 61.2365 279.839 62.5907 279.351 63.8366C278.864 65.0283 278.322 66.22 277.563 67.4659C276.859 66.7617 276.209 66.0575 275.505 65.2991C274.801 64.5408 274.097 63.7282 273.284 62.8615C272.58 62.1032 271.984 61.4531 271.442 60.9115C270.901 60.3156 270.467 59.8281 270.088 59.3947C272.201 58.3655 273.717 57.3363 274.747 56.2529C275.722 55.1695 276.209 53.9236 276.209 52.5152C276.209 50.9443 275.613 49.6985 274.476 48.7234C273.338 47.7484 271.659 47.2609 269.492 47.2609C267.326 47.2609 265.646 47.8025 264.346 48.8859C262.992 49.9693 262.342 51.486 262.342 53.382C262.342 54.4112 262.559 55.4945 262.938 56.5238C263.317 57.6071 264.021 58.6905 264.996 59.8822C265.05 59.9364 265.105 59.9364 265.105 59.9906C265.159 60.0447 265.159 60.0447 265.213 60.0989C263.1 61.1281 261.529 62.2657 260.5 63.6199C259.471 64.92 258.983 66.4367 258.983 68.1701C258.983 69.5243 259.308 70.7161 260.013 71.8536C260.717 72.937 261.692 73.8579 262.992 74.5079C264.292 75.1579 265.809 75.4829 267.542 75.4829C269.492 75.4829 271.117 75.1579 272.417 74.5621C273.717 73.912 274.801 73.1537 275.668 72.287C275.884 72.5036 276.047 72.6661 276.263 72.8828C276.48 73.0995 276.697 73.262 276.859 73.4787C277.672 74.237 278.484 74.7787 279.297 75.0496C280.109 75.3746 281.084 75.4829 282.276 75.4829C282.872 75.4829 283.36 75.4288 283.901 75.3746C284.443 75.3204 285.039 75.2121 285.851 74.9954L286.122 72.7203L282.168 72.0161C281.572 71.3661 281.03 70.8244 280.489 70.2285C279.947 69.6868 279.459 69.1452 278.972 68.6035C279.947 67.1951 280.759 65.7867 281.409 64.3783C282.114 62.9699 282.71 61.3448 283.197 59.5572L286.176 59.0697V57.2821H277.509L277.347 59.2322ZM267.163 49.8068C267.813 49.1568 268.571 48.8318 269.492 48.8318C270.413 48.8318 271.172 49.1568 271.767 49.7526C272.363 50.3485 272.688 51.161 272.688 52.2444C272.688 53.2736 272.363 54.2487 271.767 55.2237C271.117 56.1987 270.251 57.1738 269.167 58.1488C268.951 57.878 268.734 57.6071 268.571 57.3905C268.355 57.1196 268.192 56.9029 267.976 56.6321C267.326 55.7654 266.892 54.9529 266.675 54.3028C266.459 53.5986 266.35 52.9486 266.35 52.2986C266.242 51.3235 266.567 50.511 267.163 49.8068ZM269.438 72.612C268.246 72.612 267.217 72.3411 266.296 71.8536C265.43 71.3119 264.725 70.6619 264.238 69.741C263.75 68.8743 263.48 67.8993 263.48 66.8701C263.48 65.895 263.696 64.9741 264.075 63.9991C264.455 63.024 265.159 62.1573 266.188 61.399C266.73 62.049 267.326 62.8074 267.976 63.6199C268.68 64.4324 269.492 65.4075 270.413 66.545C271.009 67.2492 271.605 68.0076 272.255 68.766C272.905 69.5243 273.609 70.2827 274.313 71.0411C272.959 72.0703 271.334 72.5578 269.438 72.612Z" fill="#1A1D24"/>
<path d="M309.74 61.1281C312.178 60.6406 313.911 59.8822 314.886 58.6905C315.861 57.4987 316.349 56.1987 316.349 54.7903C316.349 52.8944 315.59 51.3235 314.073 50.1318C312.557 48.8859 310.227 48.29 307.086 48.29H294.518V50.2401L297.985 50.6193C298.039 52.3527 298.039 54.1403 298.039 55.8737V68.0075C298.039 69.741 297.985 71.4744 297.985 73.2078L294.518 73.587V75.5371H305.948C308.223 75.5371 310.119 75.3204 311.636 74.887C313.153 74.4537 314.398 73.8578 315.265 73.0994C316.186 72.3411 316.836 71.5285 317.215 70.6618C317.649 69.741 317.811 68.8743 317.811 67.9534C317.811 66.22 317.161 64.7574 315.915 63.5115C314.669 62.2656 312.611 61.5073 309.74 61.1281ZM303.348 55.6028C303.402 53.8694 303.402 52.136 303.402 50.4026H305.569C307.411 50.4026 308.819 50.7818 309.686 51.5402C310.607 52.2985 311.094 53.4902 311.094 55.1695C311.094 56.8487 310.607 58.2029 309.632 59.0697C308.657 59.9364 307.086 60.3155 304.973 60.3155H303.294L303.348 55.6028ZM305.352 73.3703H303.402C303.348 71.6369 303.348 69.9035 303.348 68.1159V62.374H305.19C307.627 62.374 309.415 62.8615 310.552 63.7824C311.69 64.7032 312.286 66.0575 312.286 67.9534C312.286 71.5285 310.011 73.3703 305.352 73.3703Z" fill="#1A1D24"/>
<path d="M44.9615 46.0691C46.5866 46.0691 47.8866 44.7691 47.8866 43.144C47.8866 41.5189 46.5866 40.2189 44.9615 40.2189C43.3364 40.2189 42.0364 41.5189 42.0364 43.144C42.0364 44.7691 43.3364 46.0691 44.9615 46.0691Z" fill="#FCBC32"/>
<path d="M45.9908 59.2866C48.4825 58.6907 50.0534 56.1989 49.4576 53.7071C48.8617 51.2154 46.3699 49.6445 43.8782 50.2403C41.3864 50.8362 39.8155 53.328 40.4113 55.8197C41.0072 58.3657 43.499 59.8824 45.9908 59.2866Z" fill="#FCBC32"/>
<path d="M45.9908 82.525C48.4825 81.9292 50.0534 79.4374 49.4576 76.9456C48.8617 74.4538 46.3699 72.8829 43.8782 73.4788C41.3864 74.0747 39.8155 76.5664 40.4113 79.0582C41.0072 81.55 43.499 83.1209 45.9908 82.525Z" fill="#FCBC32"/>
<path d="M47.8325 66.3825C47.8325 64.7574 46.5325 63.4573 44.9074 63.4573C43.2823 63.4573 41.9823 64.7574 41.9823 66.3825C41.9823 68.0075 43.2823 69.3076 44.9074 69.3076C46.5325 69.3076 47.8325 68.0075 47.8325 66.3825Z" fill="#FCBC32"/>
<path d="M62.7831 66.0576C60.2372 66.0576 58.1246 68.116 58.1246 70.7162C58.1246 73.2621 60.183 75.3747 62.7831 75.3747C65.329 75.3747 67.4416 73.3163 67.4416 70.7162C67.3875 68.116 65.329 66.0576 62.7831 66.0576Z" fill="#FCBC32"/>
<path d="M62.7832 79.3833C61.1581 79.3833 59.8581 80.6833 59.8581 82.3084C59.8581 83.9335 61.1581 85.2335 62.7832 85.2335C64.4083 85.2335 65.7083 83.9335 65.7083 82.3084C65.6542 80.6833 64.3541 79.3833 62.7832 79.3833Z" fill="#FCBC32"/>
<path d="M62.7832 61.9948C64.4083 61.9948 65.7083 60.6947 65.7083 59.0697C65.7083 57.4446 64.4083 56.1445 62.7832 56.1445C61.1581 56.1445 59.8581 57.4446 59.8581 59.0697C59.8581 60.6947 61.1581 61.9948 62.7832 61.9948Z" fill="#FCBC32"/>
<path d="M63.2165 50.3486C64.7874 50.0778 65.8708 48.6152 65.5999 47.0443C65.3291 45.4734 63.8665 44.39 62.2956 44.6609C60.7247 44.9317 59.6413 46.3943 59.9122 47.9652C60.183 49.5361 61.6456 50.5653 63.2165 50.3486Z" fill="#FCBC32"/>
<path d="M83.8549 58.0406C85.6425 56.253 85.6425 53.2737 83.8549 51.4861C82.0673 49.6986 79.088 49.6986 77.3004 51.4861C75.5129 53.2737 75.5129 56.253 77.3004 58.0406C79.088 59.8824 82.0673 59.8824 83.8549 58.0406Z" fill="#FCBC32"/>
<path d="M80.6048 46.0691C82.2298 46.0691 83.5299 44.7691 83.5299 43.144C83.5299 41.5189 82.2298 40.2189 80.6048 40.2189C78.9797 40.2189 77.6796 41.5189 77.6796 43.144C77.6796 44.7691 78.9797 46.0691 80.6048 46.0691Z" fill="#FCBC32"/>
<path d="M80.6048 63.5116C78.9797 63.5116 77.6796 64.8116 77.6796 66.4367C77.6796 68.0618 78.9797 69.3618 80.6048 69.3618C82.2298 69.3618 83.5299 68.0618 83.5299 66.4367C83.4757 64.8116 82.1757 63.5116 80.6048 63.5116Z" fill="#FCBC32"/>
<path d="M80.6048 75.1037C78.9797 75.1037 77.6796 76.4038 77.6796 78.0288C77.6796 79.6539 78.9797 80.954 80.6048 80.954C82.2298 80.954 83.5299 79.6539 83.5299 78.0288C83.4757 76.4038 82.1757 75.1037 80.6048 75.1037Z" fill="#FCBC32"/>
</svg>
