<svg width="449" height="126" viewBox="0 0 449 126" fill="none" xmlns="http://www.w3.org/2000/svg">
<path d="M325.435 51.2129C326.302 51.2129 327.06 50.9421 327.602 50.4004C328.197 49.8587 328.522 49.1545 328.522 48.2878C328.522 47.4211 328.197 46.7169 327.602 46.1752C327.006 45.6335 326.302 45.3627 325.435 45.3627C324.568 45.3627 323.81 45.6335 323.214 46.1752C322.618 46.7169 322.293 47.4211 322.293 48.2878C322.293 49.1545 322.618 49.8587 323.214 50.4004C323.81 50.9421 324.568 51.2129 325.435 51.2129Z" fill="#FAFAFA"/>
<path d="M158.648 63.4553C158.648 61.776 158.323 60.3135 157.619 59.1217C156.969 57.8758 156.048 56.955 154.856 56.2508C153.665 55.5466 152.256 55.2216 150.631 55.2216C148.898 55.2216 147.273 55.6549 145.756 56.4675C144.239 57.28 142.993 58.4717 142.073 60.0968C141.152 61.6677 140.664 63.5094 140.664 65.7304C140.664 67.9513 141.097 69.6847 141.91 71.2556C142.723 72.7723 143.86 73.9641 145.323 74.7766C146.785 75.5891 148.464 76.0225 150.36 76.0225C152.256 76.0225 153.936 75.5891 155.29 74.7766C156.698 73.9099 157.782 72.7723 158.594 71.2556L157.402 70.1722C156.698 70.9306 155.94 71.5806 155.127 72.0681C154.315 72.5557 153.286 72.7723 152.094 72.7723C150.36 72.7723 148.952 72.1765 147.76 70.9848C146.623 69.793 146.027 68.0596 145.919 65.6762H158.486C158.54 65.0803 158.648 64.322 158.648 63.4553ZM153.502 63.1844C153.177 63.6178 152.527 63.7803 151.552 63.7803H145.919C146.027 62.1552 146.298 60.8551 146.731 59.8801C147.219 58.9051 147.76 58.255 148.356 57.8217C149.006 57.3883 149.656 57.1716 150.306 57.1716C151.335 57.1716 152.202 57.5508 152.906 58.3634C153.611 59.1759 153.99 60.2051 153.99 61.451C153.936 62.1552 153.773 62.7511 153.502 63.1844Z" fill="#FAFAFA"/>
<path d="M188.604 56.9009C187.195 55.7633 185.245 55.1674 182.754 55.1674C180.262 55.1674 178.312 55.7633 176.903 57.0092C175.495 58.2009 174.791 59.826 174.791 61.8302C174.791 64.4845 175.874 66.3804 178.041 67.4638C177.012 68.3847 176.253 69.2514 175.766 70.0639C175.278 70.8223 175.062 71.6348 175.062 72.3932C175.062 73.1516 175.278 73.8016 175.657 74.3433C176.091 74.885 176.687 75.3183 177.553 75.5892C176.253 76.2392 175.278 76.8892 174.737 77.5934C174.141 78.3518 173.87 79.1643 173.87 80.031C173.87 80.8978 174.141 81.7645 174.682 82.4687C175.278 83.227 176.199 83.7687 177.445 84.2562C178.745 84.6896 180.424 84.9063 182.537 84.9063C184.974 84.9063 186.979 84.5812 188.604 83.877C190.229 83.1728 191.475 82.3061 192.287 81.1686C193.154 80.031 193.533 78.8393 193.533 77.5393C193.533 75.8059 192.937 74.4516 191.8 73.4224C190.662 72.3932 188.766 71.9057 186.058 71.9057H180.912C179.991 71.9057 179.395 71.7432 179.016 71.4723C178.691 71.1473 178.528 70.7681 178.528 70.2264C178.528 69.4139 178.799 68.6555 179.287 67.9513C180.316 68.2764 181.453 68.3847 182.699 68.3847C185.191 68.3847 187.195 67.7888 188.55 66.5971C189.958 65.3512 190.662 63.7262 190.662 61.7761C190.662 60.4218 190.391 59.2843 189.796 58.3092H193.75V55.4383L193.154 55.0049L188.604 56.9009ZM178.637 76.1309C179.449 76.2934 180.316 76.4017 181.345 76.4017H185.895C187.195 76.4017 188.116 76.6726 188.658 77.2143C189.2 77.7559 189.47 78.406 189.47 79.1643C189.47 80.1935 188.929 81.0603 187.791 81.7645C186.708 82.4687 185.083 82.8478 182.916 82.8478C181.183 82.8478 179.883 82.577 178.962 81.9811C178.041 81.3853 177.553 80.4644 177.553 79.2185C177.499 78.1893 177.878 77.1601 178.637 76.1309ZM185.299 65.3512C184.704 66.2721 183.837 66.7055 182.699 66.7055C181.562 66.7055 180.749 66.2721 180.208 65.4054C179.612 64.5387 179.341 63.347 179.341 61.8844C179.341 60.4218 179.666 59.2301 180.262 58.3634C180.912 57.4425 181.778 57.0092 182.862 57.0092C183.945 57.0092 184.812 57.4425 185.354 58.3092C185.949 59.176 186.275 60.3135 186.275 61.7761C186.22 63.2386 185.949 64.4845 185.299 65.3512Z" fill="#FAFAFA"/>
<path d="M215.688 69.9557V62.5345C215.688 59.9885 215.201 58.1468 214.226 56.9551C213.251 55.7634 211.842 55.1675 210.109 55.1675C207.563 55.1675 205.18 56.3592 203.121 58.7968V51.484L203.284 45.6879L202.688 45.3087L195.375 47.1505V48.7755L198.354 49.2089V69.9015C198.354 71.0932 198.354 72.1766 198.3 73.2058L195.592 73.7475V75.4267H205.721V73.7475L203.284 73.26C203.229 72.2308 203.229 71.0932 203.229 69.9557V61.0178C204.854 59.4469 206.48 58.6885 207.996 58.6885C209.026 58.6885 209.784 59.0135 210.163 59.6094C210.596 60.2052 210.813 61.3428 210.813 62.9137V69.9557C210.813 71.0932 210.813 72.1766 210.759 73.2058L208.159 73.7475V75.4267H218.234V73.7475L215.742 73.26C215.688 72.2308 215.688 71.1474 215.688 69.9557Z" fill="#FAFAFA"/>
<path d="M142.073 48.2338H133.026V50.1297L136.385 50.6172L131.401 68.5472L125.93 50.5631L129.776 50.1297V48.2338H118.076V50.1297L121.651 50.5631L116.017 68.3305L111.359 50.5631L114.771 50.1297V48.2338H102.854V50.1297L105.833 50.4547L113.2 75.535H116.017L122.192 55.5466L128.693 75.535H131.51L138.606 50.6172L141.91 50.0756V48.2338H142.073Z" fill="#FAFAFA"/>
<path d="M166.719 51.3756C167.586 51.3756 168.345 51.1048 168.886 50.5631C169.482 50.0214 169.807 49.3172 169.807 48.4505C169.807 47.5838 169.482 46.8796 168.886 46.3379C168.29 45.7962 167.586 45.5254 166.719 45.5254C165.853 45.5254 165.094 45.7962 164.499 46.3379C163.903 46.8796 163.578 47.5838 163.578 48.4505C163.578 49.3172 163.903 50.0214 164.499 50.5631C165.094 51.1048 165.853 51.3756 166.719 51.3756Z" fill="#FAFAFA"/>
<path d="M169.157 69.9013V61.3426L169.265 55.5465L168.615 55.1131L161.248 57.7132V59.2841L164.174 59.6633C164.228 60.4759 164.282 61.2884 164.282 62.0468C164.336 62.8051 164.336 63.726 164.336 64.8094V69.8471C164.336 71.0388 164.336 72.1222 164.282 73.1514L161.573 73.6931V75.3723H171.757V73.6931L169.265 73.2056C169.211 72.1764 169.157 71.093 169.157 69.9013Z" fill="#FAFAFA"/>
<path d="M350.407 73.26C349.594 73.26 349.215 72.6641 349.215 71.4182V62.4803C349.215 59.826 348.673 57.876 347.59 56.7926C346.507 55.655 344.773 55.0592 342.39 55.0592C340.006 55.0592 337.894 55.5467 336.377 56.5217C334.86 57.4968 333.994 58.7968 333.777 60.4761C333.994 61.722 334.752 62.3178 336.052 62.3178C336.756 62.3178 337.298 62.1011 337.785 61.6136C338.273 61.1261 338.544 60.4219 338.652 59.4469L339.14 57.1718C339.465 57.1176 339.735 57.0634 340.006 57.0634C340.331 57.0092 340.602 57.0092 340.819 57.0092C342.173 57.0092 343.094 57.3343 343.581 58.0385C344.123 58.6885 344.394 59.9885 344.394 61.8845V63.022C343.69 63.2387 342.986 63.4012 342.281 63.6179C341.577 63.8345 340.981 63.9971 340.44 64.2137C338.49 64.8638 336.973 65.4596 335.889 66.1638C334.86 66.8138 334.102 67.518 333.723 68.2764C333.289 69.0348 333.127 69.8473 333.127 70.714C333.127 72.3933 333.668 73.6933 334.698 74.56C335.781 75.4267 337.081 75.8601 338.598 75.8601C339.898 75.8601 340.981 75.5892 341.794 75.1017C342.606 74.56 343.527 73.7475 344.556 72.7183C344.827 73.6933 345.261 74.4517 345.965 74.9934C346.669 75.5351 347.536 75.8059 348.619 75.8059C349.594 75.8059 350.407 75.5892 351.057 75.21C351.761 74.7767 352.303 74.1267 352.844 73.2058L351.923 72.3933C351.382 72.935 350.894 73.26 350.407 73.26ZM344.34 71.1474C343.365 71.8516 342.606 72.2849 342.173 72.5016C341.686 72.7183 341.252 72.8266 340.765 72.8266C339.952 72.8266 339.248 72.6099 338.652 72.1224C338.11 71.6349 337.84 70.8224 337.84 69.7931C337.84 68.9806 338.11 68.2222 338.598 67.518C339.14 66.8138 340.06 66.1638 341.415 65.6221C341.794 65.4596 342.173 65.3513 342.715 65.1888C343.256 65.0263 343.798 64.8638 344.34 64.6471V71.1474Z" fill="#FAFAFA"/>
<path d="M364.166 63.347L362.541 62.8595C361.132 62.372 360.211 61.9386 359.67 61.5053C359.182 61.0178 358.911 60.4219 358.911 59.7177C358.911 58.9052 359.236 58.3093 359.832 57.8218C360.428 57.3343 361.295 57.1176 362.378 57.1176C363.299 57.1176 364.166 57.2801 364.924 57.6051L365.682 61.0719H368.391L368.608 56.7384C367.633 56.1967 366.657 55.7634 365.682 55.4925C364.707 55.1675 363.678 55.0592 362.486 55.0592C360.807 55.0592 359.399 55.33 358.207 55.9259C357.07 56.4676 356.203 57.2259 355.607 58.201C355.011 59.1218 354.686 60.1511 354.686 61.3428C354.686 62.8053 355.119 63.9971 355.986 64.9721C356.907 65.9471 358.099 66.6513 359.616 67.1389L361.674 67.8431C362.974 68.2764 363.895 68.7639 364.437 69.2515C364.978 69.739 365.249 70.3348 365.249 71.0932C365.249 71.9599 364.924 72.6641 364.22 73.1516C363.516 73.6392 362.486 73.91 361.078 73.91C359.941 73.91 358.857 73.6933 357.882 73.3141L357.124 69.5223H354.361L354.415 74.2892C355.444 74.885 356.474 75.2642 357.557 75.5351C358.64 75.8601 359.778 75.9684 361.024 75.9684C363.787 75.9684 365.899 75.3726 367.362 74.1808C368.878 72.9891 369.637 71.4724 369.637 69.6306C369.637 68.2222 369.203 66.9764 368.391 66.0013C367.578 64.8638 366.17 63.9971 364.166 63.347Z" fill="#FAFAFA"/>
<path d="M390.546 63.2929C390.546 61.6136 390.221 60.1511 389.517 58.9593C388.867 57.7134 387.946 56.7926 386.754 56.0884C385.562 55.3842 384.154 55.0592 382.529 55.0592C380.796 55.0592 379.17 55.4925 377.654 56.305C376.137 57.1176 374.891 58.3093 373.97 59.9344C373.049 61.5053 372.562 63.347 372.562 65.568C372.562 67.7347 372.995 69.5223 373.808 71.0932C374.62 72.6099 375.758 73.8017 377.22 74.6142C378.683 75.4267 380.362 75.8601 382.258 75.8601C384.154 75.8601 385.833 75.4267 387.188 74.6142C388.596 73.7475 389.679 72.6099 390.492 71.0932L389.3 70.0098C388.596 70.7682 387.838 71.4182 387.025 71.9057C386.212 72.3933 385.183 72.6099 383.992 72.6099C382.258 72.6099 380.85 72.0141 379.658 70.8224C378.52 69.6306 377.925 67.8972 377.816 65.5138H390.383C390.492 64.9179 390.546 64.1596 390.546 63.2929ZM385.4 62.9678C385.075 63.4012 384.425 63.5637 383.45 63.5637H377.816C377.925 61.9386 378.195 60.6386 378.629 59.6635C379.116 58.6885 379.658 58.0385 380.254 57.6051C380.904 57.1718 381.554 56.9551 382.204 56.9551C383.233 56.9551 384.1 57.3343 384.804 58.1468C385.508 58.9593 385.887 59.9885 385.887 61.2344C385.887 61.9928 385.725 62.5887 385.4 62.9678Z" fill="#FAFAFA"/>
<path d="M229.664 73.3141C229.014 73.3141 228.472 73.0974 228.039 72.6099C227.66 72.1224 227.443 71.4182 227.443 70.389V58.3092H232.427V55.7633H227.497L227.66 50.1297H224.355L222.784 55.7633L219.48 56.1967V58.3092H222.514V67.0305C222.514 67.843 222.514 68.493 222.459 69.0889V70.8765C222.459 72.664 222.947 74.0183 223.868 74.8308C224.789 75.6434 226.089 76.0767 227.714 76.0767C229.014 76.0767 230.097 75.86 231.018 75.3725C231.939 74.885 232.643 74.235 233.131 73.3683L232.156 72.339C231.289 72.9349 230.422 73.2599 229.664 73.3141Z" fill="#FAFAFA"/>
<path d="M407.772 65.8387C406.905 64.8095 405.497 63.997 403.492 63.2928L401.867 62.8053C400.459 62.3178 399.538 61.8844 398.996 61.4511C398.509 60.9635 398.238 60.3677 398.238 59.6635C398.238 58.8509 398.563 58.2551 399.159 57.7676C399.755 57.28 400.621 57.0634 401.705 57.0634C402.626 57.0634 403.492 57.2259 404.251 57.5509L405.009 61.0177H407.718L407.934 56.6842C406.959 56.1425 405.984 55.7091 405.009 55.4383C404.034 55.1133 403.005 55.0049 401.813 55.0049C400.134 55.0049 398.726 55.2758 397.534 55.8716C396.396 56.4133 395.53 57.1717 394.934 58.1467C394.338 59.0676 394.013 60.0968 394.013 61.2885C394.013 62.7511 394.446 63.9428 395.313 64.9179C396.234 65.8929 397.425 66.5971 398.942 67.0846L401.001 67.7888C402.301 68.2222 403.222 68.7097 403.763 69.1972C404.305 69.6848 404.576 70.2806 404.576 71.039C404.576 71.9057 404.251 72.6099 403.547 73.0974C402.842 73.5849 401.813 73.8558 400.405 73.8558C399.267 73.8558 398.184 73.6391 397.209 73.2599L396.45 69.4681H393.688L393.742 74.235C394.771 74.8308 395.8 75.21 396.884 75.4808C397.967 75.8059 399.105 75.9142 400.351 75.9142C403.113 75.9142 405.226 75.3183 406.688 74.1266C408.205 72.9349 408.963 71.4182 408.963 69.5764C409.072 68.1139 408.638 66.868 407.772 65.8387Z" fill="#FAFAFA"/>
<path d="M244.615 63.5095L242.99 63.022C241.581 62.5344 240.66 62.1011 240.119 61.6677C239.631 61.1802 239.36 60.5843 239.36 59.8802C239.36 59.0676 239.685 58.4718 240.281 57.9842C240.877 57.4967 241.744 57.28 242.827 57.28C243.748 57.28 244.615 57.4425 245.373 57.7676L246.131 61.2344H248.84L249.056 56.955C248.081 56.4133 247.106 55.98 246.131 55.7091C245.156 55.3841 244.127 55.2758 242.935 55.2758C241.256 55.2758 239.848 55.5466 238.656 56.1425C237.518 56.6842 236.652 57.4425 236.056 58.4176C235.46 59.3385 235.135 60.3677 235.135 61.5594C235.135 63.022 235.568 64.2137 236.435 65.1887C237.356 66.1638 238.548 66.868 240.064 67.3555L242.123 68.0597C243.423 68.493 244.344 68.9806 244.885 69.4681C245.427 69.9556 245.698 70.5515 245.698 71.3098C245.698 72.1765 245.373 72.8807 244.669 73.3683C243.965 73.8558 242.935 74.1266 241.527 74.1266C240.389 74.1266 239.306 73.9099 238.331 73.5308L237.573 69.7389H234.81L234.864 74.5058C235.893 75.1017 236.923 75.4808 238.006 75.7517C239.089 76.0767 240.227 76.185 241.473 76.185C244.235 76.185 246.348 75.5892 247.811 74.3975C249.327 73.2057 250.086 71.689 250.086 69.8473C250.086 68.4389 249.652 67.193 248.84 66.2179C248.027 65.0262 246.619 64.1595 244.615 63.5095Z" fill="#FAFAFA"/>
<path d="M327.872 69.7389V61.1802L327.981 55.3841L327.331 54.9507L319.964 57.5508V59.1217L322.889 59.5009C322.943 60.3135 322.943 61.126 322.943 61.8844C322.997 62.6427 322.997 63.5636 322.997 64.647V69.6847C322.997 70.8764 322.997 71.9598 322.943 72.989L320.235 73.5307V75.2099H330.418V73.5307L327.927 73.0432C327.872 72.014 327.872 70.9306 327.872 69.7389Z" fill="#FAFAFA"/>
<path d="M277.062 59.0133L280.258 59.555C279.933 61.0176 279.554 62.3718 279.066 63.6177C278.579 64.8094 278.037 66.0011 277.278 67.247C276.574 66.5428 275.924 65.8386 275.22 65.0803C274.516 64.3219 273.812 63.5094 272.999 62.6427C272.295 61.8843 271.699 61.2343 271.157 60.6926C270.616 60.0967 270.182 59.6092 269.803 59.1758C271.916 58.1466 273.432 57.1174 274.462 56.034C275.437 54.9507 275.924 53.7048 275.924 52.2964C275.924 50.7255 275.328 49.4796 274.191 48.5045C273.053 47.5295 271.374 47.042 269.207 47.042C267.041 47.042 265.361 47.5837 264.061 48.6671C262.707 49.7504 262.057 51.2672 262.057 53.1631C262.057 54.1923 262.274 55.2757 262.653 56.3049C263.032 57.3883 263.736 58.4716 264.711 59.6634C264.765 59.7175 264.82 59.7175 264.82 59.7717C264.874 59.8259 264.874 59.8259 264.928 59.88C262.815 60.9093 261.244 62.0468 260.215 63.401C259.186 64.7011 258.698 66.2178 258.698 67.9512C258.698 69.3055 259.023 70.4972 259.728 71.6347C260.432 72.7181 261.407 73.639 262.707 74.289C264.007 74.939 265.524 75.2641 267.257 75.2641C269.207 75.2641 270.832 74.939 272.132 74.3432C273.432 73.6932 274.516 72.9348 275.383 72.0681C275.599 72.2848 275.762 72.4473 275.978 72.6639C276.195 72.8806 276.412 73.0431 276.574 73.2598C277.387 74.0182 278.199 74.5599 279.012 74.8307C279.824 75.1557 280.799 75.2641 281.991 75.2641C282.587 75.2641 283.075 75.2099 283.616 75.1557C284.158 75.1016 284.754 74.9932 285.566 74.7765L285.837 72.5014L281.883 71.7972C281.287 71.1472 280.745 70.6055 280.204 70.0097C279.662 69.468 279.174 68.9263 278.687 68.3846C279.662 66.9762 280.474 65.5678 281.124 64.1594C281.829 62.751 282.425 61.1259 282.912 59.3384L285.891 58.8508V57.0633H277.224L277.062 59.0133ZM266.878 49.5879C267.528 48.9379 268.286 48.6129 269.207 48.6129C270.128 48.6129 270.887 48.9379 271.482 49.5338C272.078 50.1296 272.403 50.9421 272.403 52.0255C272.403 53.0547 272.078 54.0298 271.482 55.0048C270.832 55.9799 269.966 56.9549 268.882 57.93C268.666 57.6591 268.449 57.3883 268.286 57.1716C268.07 56.9007 267.907 56.6841 267.691 56.4132C267.04 55.5465 266.607 54.734 266.39 54.084C266.174 53.3798 266.065 52.7297 266.065 52.0797C265.957 51.1047 266.282 50.2921 266.878 49.5879ZM269.153 72.3931C267.961 72.3931 266.932 72.1223 266.011 71.6347C265.145 71.093 264.44 70.443 263.953 69.5221C263.465 68.6554 263.195 67.6804 263.195 66.6512C263.195 65.6761 263.411 64.7553 263.79 63.7802C264.17 62.8052 264.874 61.9385 265.903 61.1801C266.445 61.8301 267.04 62.5885 267.691 63.401C268.395 64.2136 269.207 65.1886 270.128 66.3262C270.724 67.0304 271.32 67.7887 271.97 68.5471C272.62 69.3055 273.324 70.0638 274.028 70.8222C272.674 71.8514 271.049 72.3389 269.153 72.3931Z" fill="#FAFAFA"/>
<path d="M309.455 60.9092C311.893 60.4217 313.626 59.6633 314.601 58.4716C315.576 57.2799 316.064 55.9798 316.064 54.5714C316.064 52.6755 315.305 51.1046 313.788 49.9129C312.272 48.667 309.942 48.0711 306.801 48.0711H294.233V50.0212L297.7 50.4004C297.754 52.1338 297.754 53.9214 297.754 55.6548V67.7887C297.754 69.5221 297.7 71.2555 297.7 72.9889L294.233 73.3681V75.3182H305.663C307.938 75.3182 309.834 75.1015 311.351 74.6681C312.868 74.2348 314.113 73.6389 314.98 72.8806C315.901 72.1222 316.551 71.3097 316.93 70.443C317.364 69.5221 317.526 68.6554 317.526 67.7345C317.526 66.0011 316.876 64.5385 315.63 63.2926C314.384 62.0468 312.326 61.2884 309.455 60.9092ZM303.063 55.384C303.117 53.6506 303.117 51.9171 303.117 50.1837H305.284C307.126 50.1837 308.534 50.5629 309.401 51.3213C310.322 52.0796 310.809 53.2714 310.809 54.9506C310.809 56.6298 310.322 57.9841 309.347 58.8508C308.372 59.7175 306.801 60.0967 304.688 60.0967H303.009L303.063 55.384ZM305.067 73.1514H303.117C303.063 71.418 303.063 69.6846 303.063 67.897V62.1551H304.905C307.342 62.1551 309.13 62.6426 310.267 63.5635C311.405 64.4844 312.001 65.8386 312.001 67.7345C312.001 71.3097 309.726 73.1514 305.067 73.1514Z" fill="#FAFAFA"/>
<path d="M44.6765 45.8503C46.3016 45.8503 47.6016 44.5502 47.6016 42.9251C47.6016 41.3001 46.3016 40 44.6765 40C43.0514 40 41.7514 41.3001 41.7514 42.9251C41.7514 44.5502 43.0514 45.8503 44.6765 45.8503Z" fill="#FCBC32"/>
<path d="M45.7058 59.0677C48.1975 58.4718 49.7684 55.9801 49.1726 53.4883C48.5767 50.9965 46.0849 49.4256 43.5932 50.0215C41.1014 50.6173 39.5305 53.1091 40.1263 55.6009C40.7222 58.1468 43.214 59.6635 45.7058 59.0677Z" fill="#FCBC32"/>
<path d="M45.7058 82.3062C48.1975 81.7103 49.7684 79.2185 49.1726 76.7267C48.5767 74.235 46.0849 72.6641 43.5932 73.2599C41.1014 73.8558 39.5305 76.3476 40.1263 78.8393C40.7222 81.3311 43.214 82.902 45.7058 82.3062Z" fill="#FCBC32"/>
<path d="M47.5475 66.1636C47.5475 64.5385 46.2475 63.2385 44.6224 63.2385C42.9973 63.2385 41.6973 64.5385 41.6973 66.1636C41.6973 67.7887 42.9973 69.0887 44.6224 69.0887C46.2475 69.0887 47.5475 67.7887 47.5475 66.1636Z" fill="#FCBC32"/>
<path d="M62.4981 65.8387C59.9521 65.8387 57.8396 67.8972 57.8396 70.4973C57.8396 73.0432 59.898 75.1558 62.4981 75.1558C65.044 75.1558 67.1566 73.0974 67.1566 70.4973C67.1025 67.8972 65.044 65.8387 62.4981 65.8387Z" fill="#FCBC32"/>
<path d="M62.4982 79.1644C60.8731 79.1644 59.5731 80.4645 59.5731 82.0895C59.5731 83.7146 60.8731 85.0147 62.4982 85.0147C64.1233 85.0147 65.4233 83.7146 65.4233 82.0895C65.3692 80.4645 64.0691 79.1644 62.4982 79.1644Z" fill="#FCBC32"/>
<path d="M62.4982 61.7759C64.1233 61.7759 65.4233 60.4759 65.4233 58.8508C65.4233 57.2257 64.1233 55.9257 62.4982 55.9257C60.8731 55.9257 59.5731 57.2257 59.5731 58.8508C59.5731 60.4759 60.8731 61.7759 62.4982 61.7759Z" fill="#FCBC32"/>
<path d="M62.9315 50.1297C64.5024 49.8589 65.5858 48.3963 65.3149 46.8254C65.0441 45.2545 63.5815 44.1711 62.0106 44.442C60.4397 44.7128 59.3563 46.1754 59.6272 47.7463C59.898 49.3172 61.3606 50.3464 62.9315 50.1297Z" fill="#FCBC32"/>
<path d="M83.5699 57.8217C85.3575 56.0342 85.3575 53.0549 83.5699 51.2673C81.7823 49.4797 78.803 49.4797 77.0154 51.2673C75.2279 53.0549 75.2279 56.0342 77.0154 57.8217C78.803 59.6635 81.7823 59.6635 83.5699 57.8217Z" fill="#FCBC32"/>
<path d="M80.3198 45.8503C81.9448 45.8503 83.2449 44.5502 83.2449 42.9251C83.2449 41.3001 81.9448 40 80.3198 40C78.6947 40 77.3946 41.3001 77.3946 42.9251C77.3946 44.5502 78.6947 45.8503 80.3198 45.8503Z" fill="#FCBC32"/>
<path d="M80.3198 63.2927C78.6947 63.2927 77.3946 64.5928 77.3946 66.2178C77.3946 67.8429 78.6947 69.143 80.3198 69.143C81.9448 69.143 83.2449 67.8429 83.2449 66.2178C83.1907 64.5928 81.8907 63.2927 80.3198 63.2927Z" fill="#FCBC32"/>
<path d="M80.3198 74.8848C78.6947 74.8848 77.3946 76.1849 77.3946 77.81C77.3946 79.435 78.6947 80.7351 80.3198 80.7351C81.9448 80.7351 83.2449 79.435 83.2449 77.81C83.1907 76.1849 81.8907 74.8848 80.3198 74.8848Z" fill="#FCBC32"/>
</svg>
